PathFileType	4	(X/Y/Z)	s10c0103.trc
DataRate	CameraRate	NumFrames	NumMarkers	Units	OrigDataRate	OrigDataStartFrame	OrigNumFrames
200	200	5	50	mm	200	1500	2000
Frame#	Time	racr			lacr			c7			jug			rlel			rdr			llel			ldr			s2			lic			ric			lasi			rasi			rpsi			lpsi			rgt			lgt			rth1			rth2			rth3			rth4			rlfc			rmfc			rsh1			rsh2			rsh3			rsh4			rlmal			rmmal			rcal			rtoe			rmt5			lth1			lth2			lth4			lth3			llfc			lmfc			llmal			lmmal			lcal			lmt5			lsh1			lsh2			lsh3			lsh4			ltoe			SBIKE			LBIKE			RBIKE			
		X1	Y1	Z1	X2	Y2	Z2	X3	Y3	Z3	X4	Y4	Z4	X5	Y5	Z5	X6	Y6	Z6	X7	Y7	Z7	X8	Y8	Z8	X9	Y9	Z9	X10	Y10	Z10	X11	Y11	Z11	X12	Y12	Z12	X13	Y13	Z13	X14	Y14	Z14	X15	Y15	Z15	X16	Y16	Z16	X17	Y17	Z17	X18	Y18	Z18	X19	Y19	Z19	X20	Y20	Z20	X21	Y21	Z21	X22	Y22	Z22	X23	Y23	Z23	X24	Y24	Z24	X25	Y25	Z25	X26	Y26	Z26	X27	Y27	Z27	X28	Y28	Z28	X29	Y29	Z29	X30	Y30	Z30	X31	Y31	Z31	X32	Y32	Z32	X33	Y33	Z33	X34	Y34	Z34	X35	Y35	Z35	X36	Y36	Z36	X37	Y37	Z37	X38	Y38	Z38	X39	Y39	Z39	X40	Y40	Z40	X41	Y41	Z41	X42	Y42	Z42	X43	Y43	Z43	X44	Y44	Z44	X45	Y45	Z45	X46	Y46	Z46	X47	Y47	Z47	X48	Y48	Z48	X49	Y49	Z49	X50	Y50	Z50	
1500	7.5000	431.877781	1291.013701	-63.966599	449.259333	1308.227696	-364.264333	379.801172	1343.188662	-216.266062	417.433429	1207.452310	-233.366958	481.622999	1031.929926	13.497085	638.894907	877.405956	-54.756449	503.540549	1049.841770	-480.304030	638.428706	882.681888	-416.070455	-118.079559	1077.367778	-231.856106	37.841243	1102.840209	-394.408735	62.643293	1101.628308	-103.168123	72.687043	1015.192817	-367.504254	74.590863	1026.437583	-111.711648	-82.457856	1137.972552	-178.690443	-76.891321	1145.485836	-293.264660	-19.436817	996.881883	-40.653719	-51.258143	949.412680	-419.793146	96.098137	922.514950	-31.224264	183.091031	910.329846	-48.293589	250.092178	857.458028	-53.682859	194.131308	943.728206	-63.097605	340.322713	798.586328	-79.072828	315.303960	780.344099	-196.712352	246.869946	735.181805	-39.794562	192.064652	665.685033	-52.607384	112.708613	632.045328	-50.540766	209.312412	647.512383	-81.587564	25.916303	574.961028	-60.754441	50.437878	568.573454	-142.817949	-27.691324	591.034301	-107.321050	140.172667	414.644402	-102.361360	61.863900	451.036991	-40.696016	26.700823	838.227259	-430.269669	97.740986	790.337505	-414.165439	124.373920	814.343213	-408.630028	132.851976	710.760779	-394.243950	210.838856	629.923238	-371.534481	200.751602	622.028333	-259.914168	140.530233	257.798685	-384.912314	156.747055	261.258894	-304.635512	92.544334	218.013832	-341.457929	267.485610	186.915013	-404.961452	159.733728	515.203566	-410.522216	180.082052	430.783542	-399.474174	152.855971	345.726206	-396.623312	208.586527	432.336321	-373.992260	345.789390	228.215954	-348.048241	-217.580712	831.572791	-214.993311	-103.927802	80.241712	-418.450350	-103.896998	80.401868	-18.437236	
1501	7.5050	430.758659	1290.922040	-61.935507	449.911671	1308.360215	-361.029357	379.394044	1342.763189	-214.295831	418.055419	1207.297492	-231.235857	481.302455	1031.510476	14.830337	638.718013	877.567952	-54.524307	504.554506	1050.714114	-479.338717	638.555127	882.695645	-416.120161	-117.686611	1077.194589	-234.447356	39.883330	1102.295959	-395.345544	61.454561	1102.149091	-103.808482	73.744589	1014.680899	-366.935719	73.974174	1027.090987	-111.494251	-82.889096	1137.477360	-181.696472	-76.351902	1145.326477	-295.270982	-21.450292	998.445124	-41.912830	-49.735625	949.673519	-420.910138	95.915635	926.003341	-31.686987	183.141834	916.430850	-48.927372	252.018590	866.002889	-53.510522	193.074892	949.856064	-63.827535	345.703111	810.128948	-79.507303	321.954184	791.760231	-198.129301	253.124944	745.722357	-40.264990	199.361184	675.306335	-53.020105	120.438314	640.468608	-51.171634	217.002399	657.451902	-81.719734	34.936106	582.388757	-60.966435	59.249916	576.225007	-143.046251	-17.435051	598.914143	-107.257346	148.255285	421.303145	-102.842391	70.340080	458.303765	-41.139088	25.308782	837.888472	-430.913958	93.682532	786.969945	-413.842500	122.206384	810.781139	-409.203902	126.656174	706.568281	-395.178561	202.196686	622.100752	-373.018369	190.316260	614.114010	-260.626497	132.290410	251.049031	-384.741814	148.576600	254.795927	-304.673969	84.536454	212.059310	-341.173841	259.271367	179.646993	-404.822534	151.149606	508.771127	-411.183650	171.894646	424.599227	-399.642764	145.305158	339.334476	-396.759300	200.437656	426.371572	-374.029589	337.864423	220.597101	-347.948569	-217.571116	831.567729	-215.011154	-103.898922	80.240516	-418.445046	-103.878069	80.464647	-18.409567	
1502	7.5100	429.722524	1290.806819	-59.904694	450.630147	1308.352496	-357.787849	379.077708	1342.284912	-212.347191	418.713811	1207.075641	-229.071663	480.989628	1031.200742	16.232103	638.479214	877.765940	-54.278621	505.385134	1051.524733	-478.398373	638.665604	882.716330	-416.217743	-117.626566	1077.414534	-237.399851	41.995539	1101.897975	-396.121140	60.351806	1102.991113	-104.387932	74.669269	1014.320484	-366.057179	73.130600	1028.406484	-111.281750	-83.256769	1137.250872	-184.464767	-75.621180	1145.026787	-297.376582	-23.429350	999.924578	-43.511755	-48.266381	950.009410	-421.842353	95.519684	929.378565	-32.190490	183.176112	922.859089	-49.094154	253.687713	874.730241	-53.320609	191.929563	956.806541	-63.720032	350.705031	822.274441	-79.760290	328.250066	803.531265	-199.532138	259.324901	756.317655	-40.697876	206.783917	685.051804	-53.407046	128.840747	648.995490	-51.373585	224.869906	667.113767	-81.796274	44.640134	589.201657	-60.974962	68.811506	583.707785	-143.221602	-8.606746	605.921823	-107.623982	157.241531	427.520158	-103.128452	78.980591	464.869444	-41.988177	23.998928	837.571851	-431.497444	90.415237	784.436185	-414.647754	119.892710	807.062702	-409.660402	120.848416	702.612420	-396.418186	193.388164	615.164887	-374.877149	179.848709	607.237368	-261.618981	123.883811	245.176391	-384.767198	140.299937	249.125427	-304.917055	76.214791	206.777876	-340.925345	250.661498	172.974751	-404.664925	142.416116	503.659143	-411.962514	163.594442	419.538185	-400.046631	137.651136	334.118718	-397.303788	192.039498	421.534110	-374.421039	329.508424	213.485670	-347.837457	-217.573172	831.588757	-215.039408	-103.874418	80.234750	-418.415611	-103.823754	80.428605	-18.364614	
1503	7.5150	428.732388	1290.684748	-57.878115	451.374297	1308.272247	-354.514655	378.908389	1341.848644	-210.508154	419.307402	1206.831451	-226.945729	480.574737	1030.719858	17.669872	638.131632	878.065701	-54.120464	506.119638	1052.175052	-477.579761	638.769010	882.737487	-416.224762	-117.529109	1077.886107	-239.612915	44.050861	1101.330851	-396.537083	59.363331	1104.026776	-104.879282	75.617509	1014.190260	-364.882802	72.240359	1029.933137	-110.962969	-83.652469	1137.744014	-186.957331	-74.870114	1145.073487	-299.113997	-24.676449	1002.387125	-44.919614	-46.926881	950.450670	-422.710457	95.174070	932.933271	-32.643401	182.705078	929.171627	-49.464720	255.133760	883.715096	-52.921649	190.676024	963.563545	-63.973326	355.350865	834.666674	-79.983297	334.399325	815.427520	-200.885093	265.342945	767.083719	-41.153065	214.259755	694.875851	-53.499124	137.041980	656.960378	-51.818667	232.896258	676.679103	-82.035940	54.580082	595.585783	-60.945802	78.504699	590.235786	-143.264304	1.787074	612.233674	-107.119930	166.636547	433.351299	-103.349983	88.731586	471.154305	-42.386749	22.898930	837.255710	-431.968869	87.647172	781.940504	-415.723140	117.279179	803.343019	-409.703978	115.623571	699.060400	-398.125611	184.404433	609.301197	-376.917063	169.604618	601.416705	-262.799626	115.403447	240.298240	-384.740960	131.900657	244.106836	-305.081515	67.566887	202.405396	-340.709683	241.743260	166.835793	-404.539552	133.903920	499.117752	-412.873526	155.342764	415.079575	-400.569608	129.841729	329.611794	-397.943117	183.710589	417.182961	-374.798300	320.888204	207.067666	-348.192579	-217.555067	831.575229	-215.013472	-103.850497	80.231409	-418.396484	-103.803932	80.482125	-18.357470	
1504	7.5200	427.824711	1290.593304	-55.778958	452.076097	1308.113450	-351.373582	378.836196	1341.391308	-208.729825	419.917560	1206.533589	-224.769070	480.032917	1030.263212	19.090769	637.883634	878.447355	-53.680371	506.610024	1052.750237	-476.856357	638.854654	882.718201	-416.205068	-117.246621	1078.408342	-241.710576	46.162005	1100.801811	-396.800898	58.368711	1105.286902	-105.339888	76.639177	1014.205737	-363.418786	71.164344	1031.657633	-110.654330	-84.197864	1138.440854	-188.964528	-74.015098	1145.122134	-300.815078	-26.728029	1004.784153	-46.393615	-45.696995	950.932743	-423.508072	95.691249	937.527219	-32.351838	182.454167	935.613080	-49.354567	256.386683	892.682244	-52.486834	189.467914	970.533917	-63.790409	359.502713	847.196896	-80.362590	340.388049	827.657413	-201.868615	271.177107	777.675936	-41.671476	221.725957	704.421781	-53.909620	145.539874	664.630554	-52.216949	241.045154	686.415615	-82.016769	64.835292	601.225025	-60.939389	90.548990	596.993382	-142.873281	11.522764	617.982754	-108.019725	176.336290	438.529394	-103.657479	98.774745	476.807086	-42.928426	21.945573	837.121146	-432.460002	85.095848	779.695269	-416.888252	115.275953	800.252112	-410.228416	110.687587	695.884338	-400.029744	175.541276	604.885473	-379.024661	160.079830	597.068515	-264.152088	106.785252	236.327182	-384.942921	123.394005	240.037884	-305.482221	58.677367	198.771198	-340.531777	232.528707	161.429949	-404.388290	125.680254	495.034440	-413.896215	147.118340	411.262853	-401.232750	121.964102	325.722175	-398.383354	175.393839	413.332792	-375.432375	312.077084	201.077789	-348.032820	-217.553507	831.584573	-215.050073	-103.836816	80.249429	-418.396673	-103.796646	80.478035	-18.343405	
